<?xml version="1.0" standalone="no"?>
<!DOCTYPE svg PUBLIC "-//W3C//DTD SVG 20010904//EN"
 "http://www.w3.org/TR/2001/REC-SVG-20010904/DTD/svg10.dtd">
<svg version="1.0" xmlns="http://www.w3.org/2000/svg"
 width="500.000000pt" height="500.000000pt" viewBox="0 0 500.000000 500.000000"
 preserveAspectRatio="xMidYMid meet">

<g transform="translate(0.000000,500.000000) scale(0.100000,-0.100000)"
fill="#000000" stroke="none">
<path d="M2582 2902 c-9 -7 -12 -91 -10 -388 l3 -379 177 -3 c252 -4 347 22
428 115 69 78 99 208 80 343 -27 191 -127 287 -325 310 -106 12 -335 13 -353
2z m361 -196 c78 -28 116 -92 117 -192 0 -130 -69 -194 -212 -194 l-78 0 0
200 0 200 68 0 c37 -1 84 -7 105 -14z"/>
<path d="M2110 2683 c-67 -24 -161 -122 -189 -197 -28 -74 -37 -168 -22 -223
35 -128 183 -181 317 -113 32 16 59 30 60 30 0 0 0 -10 0 -22 -1 -22 3 -23 80
-26 78 -3 82 -2 87 20 16 64 107 508 107 522 0 13 -13 16 -80 16 -78 0 -81 -1
-91 -26 l-10 -27 -22 21 c-12 11 -35 25 -50 31 -40 16 -134 12 -187 -6z m185
-178 c66 -65 -16 -215 -118 -215 -38 0 -87 49 -87 86 0 42 37 110 73 133 45
29 102 27 132 -4z"/>
</g>
</svg>
