<?xml version="1.0" encoding="UTF-8"?>
<svg version="1.1" xmlns="http://www.w3.org/2000/svg" width="175" height="112">
<path d="M0 0 C1.32735924 -0.00855011 1.32735924 -0.00855011 2.68153381 -0.01727295 C4.56380004 -0.02674514 6.44608301 -0.03326569 8.32836914 -0.03710938 C11.17950573 -0.04672941 14.02989486 -0.07769487 16.88085938 -0.109375 C18.71223532 -0.11591359 20.54361641 -0.12116069 22.375 -0.125 C23.21707504 -0.1373468 24.05915009 -0.1496936 24.92674255 -0.16241455 C34.95945788 -0.12555526 44.38640023 2.92777479 52.28515625 9.203125 C62.11756238 20.38101828 63.17054529 33.98295186 62.28515625 48.203125 C60.88914744 57.62343639 56.77083614 66.15087317 49.28515625 72.203125 C40.15234266 77.4109881 33.24093288 79.36014215 22.86328125 79.3359375 C21.96268982 79.33689423 21.06209839 79.33785095 20.13421631 79.33883667 C18.23807709 79.33951529 16.3419355 79.33768324 14.44580078 79.33349609 C11.53152319 79.3281183 8.61739797 79.33346464 5.703125 79.33984375 C3.86067674 79.3391834 2.01822858 79.33790314 0.17578125 79.3359375 C-0.70019714 79.33796173 -1.57617554 79.33998596 -2.47869873 79.34207153 C-8.5998769 79.31809185 -8.5998769 79.31809185 -9.71484375 78.203125 C-9.83669518 76.85328752 -9.89251206 75.49737799 -9.92016602 74.14233398 C-9.95008385 72.85110878 -9.95008385 72.85110878 -9.98060608 71.53379822 C-9.99731857 70.59838699 -10.01403107 69.66297577 -10.03125 68.69921875 C-10.0520311 67.74620377 -10.07281219 66.79318878 -10.09422302 65.81129456 C-10.15982552 62.7544809 -10.21865293 59.69757844 -10.27734375 56.640625 C-10.32051881 54.57355837 -10.36413276 52.50650086 -10.40820312 50.43945312 C-10.51551776 45.36076905 -10.61675466 40.2819953 -10.71484375 35.203125 C-10.98224365 36.46495605 -11.24964355 37.72678711 -11.52514648 39.02685547 C-12.51571551 43.69769158 -13.50987166 48.36775805 -14.50512695 53.03759766 C-14.9357981 55.06082602 -15.36548939 57.08426322 -15.79418945 59.10791016 C-16.40970965 62.01259623 -17.0287222 64.91651895 -17.6484375 67.8203125 C-17.84014023 68.72868866 -18.03184296 69.63706482 -18.22935486 70.57296753 C-18.49952171 71.83404831 -18.49952171 71.83404831 -18.77514648 73.12060547 C-19.01164162 74.23313187 -19.01164162 74.23313187 -19.25291443 75.36813354 C-19.71484375 77.203125 -19.71484375 77.203125 -20.71484375 79.203125 C-26.65484375 79.203125 -32.59484375 79.203125 -38.71484375 79.203125 C-39.04484375 78.213125 -39.37484375 77.223125 -39.71484375 76.203125 C-41.23078125 77.193125 -41.23078125 77.193125 -42.77734375 78.203125 C-49.56035462 81.58858497 -58.10400847 81.49581795 -65.3203125 79.47265625 C-70.88863089 76.91311027 -74.31718036 72.80753983 -76.71484375 67.203125 C-79.17627785 53.87806823 -76.10608985 42.13142809 -68.58984375 31.078125 C-63.04854461 24.81850931 -54.58115958 20.73466927 -46.34375 19.98828125 C-40.3952411 19.76193007 -36.16073345 20.86917227 -30.71484375 23.203125 C-30.05484375 23.203125 -29.39484375 23.203125 -28.71484375 23.203125 C-28.05484375 22.543125 -27.39484375 21.883125 -26.71484375 21.203125 C-23.80548795 21.05794756 -20.99489775 21.01681704 -18.08984375 21.078125 C-17.28804687 21.08714844 -16.48625 21.09617187 -15.66015625 21.10546875 C-13.67825852 21.12906277 -11.69651394 21.16493435 -9.71484375 21.203125 C-9.72008057 20.60250244 -9.72531738 20.00187988 -9.73071289 19.38305664 C-9.75142389 16.67725662 -9.764485 13.97147323 -9.77734375 11.265625 C-9.78572266 10.32009766 -9.79410156 9.37457031 -9.80273438 8.40039062 C-9.80595703 7.50126953 -9.80917969 6.60214844 -9.8125 5.67578125 C-9.81773682 4.84312744 -9.82297363 4.01047363 -9.82836914 3.15258789 C-9.54496079 -1.71411253 -3.71107213 0.01833283 0 0 Z M12.28515625 20.203125 C12.28515625 33.073125 12.28515625 45.943125 12.28515625 59.203125 C24.9739292 59.59991952 24.9739292 59.59991952 35.16015625 53.765625 C39.58273053 48.43252072 40.67839151 42.93942521 40.109375 36.0859375 C39.0813149 30.74833256 36.45687728 26.68740668 32.28515625 23.203125 C25.85435162 20.33228995 25.85435162 20.33228995 12.28515625 20.203125 Z M-52.52734375 44.765625 C-55.06518423 47.83774769 -55.05913218 51.41451343 -54.98828125 55.26171875 C-54.81949859 57.41258291 -54.81949859 57.41258291 -53.15234375 59.703125 C-49.77721247 61.78012886 -47.61683429 61.68231682 -43.71484375 61.203125 C-39.54097588 59.55299119 -37.51127166 57.08533192 -35.44140625 53.10546875 C-34.25362582 49.99552751 -34.2831702 47.47151046 -34.71484375 44.203125 C-35.6172021 41.72207306 -35.6172021 41.72207306 -37.71484375 40.203125 C-44.48408144 38.15958155 -47.46030704 40.3974899 -52.52734375 44.765625 Z " fill="#000000" transform="translate(96.71484375,15.796875)"/>
</svg>
