<?xml version="1.0" encoding="UTF-8"?>
<svg version="1.1" xmlns="http://www.w3.org/2000/svg" width="431" height="134">
<path d="M0 0 C1.32735924 -0.00855011 1.32735924 -0.00855011 2.68153381 -0.01727295 C4.56380004 -0.02674514 6.44608301 -0.03326569 8.32836914 -0.03710938 C11.17950573 -0.04672941 14.02989486 -0.07769487 16.88085938 -0.109375 C18.71223532 -0.11591359 20.54361641 -0.12116069 22.375 -0.125 C23.21707504 -0.1373468 24.05915009 -0.1496936 24.92674255 -0.16241455 C36.46453267 -0.12002575 46.72189408 4.00268427 55.16015625 11.890625 C62.77725859 23.76434335 63.72774076 37.83607701 61.82421875 51.515625 C59.59281211 60.75627369 54.36478999 69.01698045 46.28515625 74.203125 C40.45563507 77.01426968 34.59570748 79.33679954 28.06738281 79.31665039 C27.24683411 79.31657486 26.4262854 79.31649933 25.58087158 79.31642151 C24.70469177 79.31126022 23.82851196 79.30609894 22.92578125 79.30078125 C22.0214032 79.2993663 21.11702515 79.29795135 20.1852417 79.29649353 C17.30184598 79.29090411 14.41852843 79.27835353 11.53515625 79.265625 C9.57812612 79.26060863 7.62109478 79.25604596 5.6640625 79.25195312 C0.87106372 79.24093813 -3.92187677 79.22368074 -8.71484375 79.203125 C-9.84503802 76.94273646 -9.86753332 75.63193674 -9.92016602 73.12060547 C-9.95008385 71.85952469 -9.95008385 71.85952469 -9.98060608 70.57296753 C-9.99731857 69.66459137 -10.01403107 68.75621521 -10.03125 67.8203125 C-10.0520311 66.89090851 -10.07281219 65.96150452 -10.09422302 65.00393677 C-10.15972021 62.0287429 -10.21860427 59.05345923 -10.27734375 56.078125 C-10.32052881 54.06379272 -10.36414309 52.04946959 -10.40820312 50.03515625 C-10.51540178 45.09123837 -10.61666876 40.14722997 -10.71484375 35.203125 C-10.98224365 36.46495605 -11.24964355 37.72678711 -11.52514648 39.02685547 C-12.51571551 43.69769158 -13.50987166 48.36775805 -14.50512695 53.03759766 C-14.9357981 55.06082602 -15.36548939 57.08426322 -15.79418945 59.10791016 C-16.40970965 62.01259623 -17.0287222 64.91651895 -17.6484375 67.8203125 C-17.84014023 68.72868866 -18.03184296 69.63706482 -18.22935486 70.57296753 C-18.49952171 71.83404831 -18.49952171 71.83404831 -18.77514648 73.12060547 C-19.01164162 74.23313187 -19.01164162 74.23313187 -19.25291443 75.36813354 C-19.71484375 77.203125 -19.71484375 77.203125 -20.71484375 79.203125 C-26.65484375 79.203125 -32.59484375 79.203125 -38.71484375 79.203125 C-39.04484375 78.213125 -39.37484375 77.223125 -39.71484375 76.203125 C-40.20210937 76.491875 -40.689375 76.780625 -41.19140625 77.078125 C-48.69674719 81.00819444 -57.04949017 81.83551501 -65.25 79.47265625 C-70.28269922 77.16796222 -73.45570746 73.974161 -75.765625 68.890625 C-79.46211684 58.4248374 -77.42182664 47.66536174 -72.83984375 37.828125 C-67.99949672 29.08660275 -61.46820507 24.46337409 -52.21484375 20.828125 C-44.1862636 19.39444997 -38.18626189 20.00108865 -30.71484375 23.203125 C-30.05484375 23.203125 -29.39484375 23.203125 -28.71484375 23.203125 C-28.05484375 22.543125 -27.39484375 21.883125 -26.71484375 21.203125 C-23.80548795 21.05794756 -20.99489775 21.01681704 -18.08984375 21.078125 C-17.28804687 21.08714844 -16.48625 21.09617187 -15.66015625 21.10546875 C-13.67825852 21.12906277 -11.69651394 21.16493435 -9.71484375 21.203125 C-9.72008057 20.60250244 -9.72531738 20.00187988 -9.73071289 19.38305664 C-9.75142389 16.67725662 -9.764485 13.97147323 -9.77734375 11.265625 C-9.78572266 10.32009766 -9.79410156 9.37457031 -9.80273438 8.40039062 C-9.80595703 7.50126953 -9.80917969 6.60214844 -9.8125 5.67578125 C-9.81773682 4.84312744 -9.82297363 4.01047363 -9.82836914 3.15258789 C-9.54496079 -1.71411253 -3.71107213 0.01833283 0 0 Z M12.28515625 20.203125 C12.28515625 33.073125 12.28515625 45.943125 12.28515625 59.203125 C24.9739292 59.59991952 24.9739292 59.59991952 35.16015625 53.765625 C39.19271865 48.90282917 40.2030888 44.44025131 40.28515625 38.203125 C39.67294164 33.4414558 38.3815747 28.91882715 35.28515625 25.203125 C27.94533748 20.28777125 21.02127674 20.203125 12.28515625 20.203125 Z M-53.08984375 45.390625 C-55.16620139 49.50844351 -55.31318113 52.6408025 -54.71484375 57.203125 C-53.31799369 59.8501122 -53.31799369 59.8501122 -50.71484375 61.203125 C-46.98946679 61.67726389 -44.5211849 61.52191104 -41.02734375 60.140625 C-37.37899218 57.08389801 -35.22623599 53.74114574 -34.29296875 49.109375 C-34.05825246 46.7207723 -34.05825246 46.7207723 -34.71484375 43.203125 C-37.08918247 40.48959504 -38.60405806 39.40249679 -42.15234375 38.765625 C-47.25663874 39.63709 -49.97826556 41.21455953 -53.08984375 45.390625 Z " fill="#000000" transform="translate(99.71484375,19.796875)"/>
<path d="M0 0 C0.65739166 0.02361099 1.31478333 0.04722198 1.99209595 0.07154846 C4.0705102 0.1474907 6.14848442 0.23180808 8.2265625 0.31640625 C9.64451046 0.36969673 11.06247923 0.42243652 12.48046875 0.47460938 C15.93776353 0.60300991 19.39471528 0.73891822 22.8515625 0.87890625 C25.54397809 6.85723639 28.12259182 12.87165185 30.6015625 18.94140625 C30.91738281 19.71162109 31.23320312 20.48183594 31.55859375 21.27539062 C32.32409388 23.14274701 33.08800168 25.01075604 33.8515625 26.87890625 C34.14925537 26.12681885 34.44694824 25.37473145 34.75366211 24.59985352 C36.09612256 21.21263783 37.44253724 17.82700797 38.7890625 14.44140625 C39.25763672 13.25740234 39.72621094 12.07339844 40.20898438 10.85351562 C40.65693359 9.72880859 41.10488281 8.60410156 41.56640625 7.4453125 C41.98011475 6.40318604 42.39382324 5.36105957 42.82006836 4.28735352 C43.8515625 1.87890625 43.8515625 1.87890625 44.8515625 0.87890625 C46.3402811 0.79221193 47.8330075 0.77187131 49.32421875 0.78125 C50.22333984 0.78447266 51.12246094 0.78769531 52.04882812 0.79101562 C52.99435547 0.79939453 53.93988281 0.80777344 54.9140625 0.81640625 C56.3381543 0.82317383 56.3381543 0.82317383 57.79101562 0.83007812 C60.14459315 0.84190515 62.49804727 0.858386 64.8515625 0.87890625 C66.07131942 4.538177 65.52824647 5.33975695 64.08837891 8.82739258 C63.67689606 9.83727737 63.26541321 10.84716217 62.84146118 11.88764954 C62.38331024 12.98433456 61.9251593 14.08101959 61.453125 15.2109375 C60.98474213 16.35310226 60.51635925 17.49526703 60.03378296 18.67204285 C58.77810965 21.72921862 57.51432706 24.78277878 56.24645996 27.8348999 C54.99496304 30.85271994 53.75382666 33.87479031 52.51171875 36.89648438 C50.56923509 41.61937711 48.61955248 46.33920305 46.66503906 51.05712891 C44.81781782 55.52250205 42.99160466 59.99545666 41.18652344 64.47802734 C40.77373138 65.5000676 40.36093933 66.52210785 39.93563843 67.57511902 C39.16484508 69.48676629 38.39803969 71.40002807 37.63589478 73.31513977 C37.29633759 74.15562363 36.9567804 74.99610748 36.60693359 75.86206055 C36.31434662 76.59386032 36.02175964 77.3256601 35.7203064 78.07963562 C34.8515625 79.87890625 34.8515625 79.87890625 32.8515625 81.87890625 C30.78857422 82.10595703 30.78857422 82.10595703 28.28125 82.07421875 C27.38535156 82.06777344 26.48945313 82.06132813 25.56640625 82.0546875 C24.16068359 82.02955078 24.16068359 82.02955078 22.7265625 82.00390625 C21.30923828 81.99037109 21.30923828 81.99037109 19.86328125 81.9765625 C17.52578958 81.95295147 15.18880127 81.92002141 12.8515625 81.87890625 C13.43295691 74.72775502 16.26748811 68.86604368 19.3203125 62.4375 C19.68640625 61.59574219 20.0525 60.75398438 20.4296875 59.88671875 C20.77418945 59.1405127 21.11869141 58.39430664 21.47363281 57.62548828 C22.42023424 50.74611747 17.83743206 43.28091182 15.05859375 37.125 C14.70770187 36.33867691 14.35681 35.55235382 13.99528503 34.74220276 C12.88883448 32.26514439 11.77656453 29.79075174 10.6640625 27.31640625 C9.90651229 25.62322076 9.14934733 23.92986284 8.39257812 22.23632812 C6.5500147 18.11518346 4.7022325 13.9964165 2.8515625 9.87890625 C2.76068359 10.94431641 2.76068359 10.94431641 2.66796875 12.03125 C2.58417969 12.95035156 2.50039063 13.86945312 2.4140625 14.81640625 C2.33285156 15.73292969 2.25164062 16.64945313 2.16796875 17.59375 C1.8515625 19.87890625 1.8515625 19.87890625 0.8515625 20.87890625 C-2.12043321 21.12505313 -5.0915172 21.262942 -8.0703125 21.40234375 C-11.46760798 21.92832097 -13.42029992 22.80826945 -16.1484375 24.87890625 C-17.29047778 28.30502708 -17.34107254 31.08721643 -17.4296875 34.69921875 C-17.44809692 35.35848358 -17.46650635 36.01774841 -17.48547363 36.69699097 C-17.56408777 39.51479035 -17.63210677 42.33282005 -17.70068359 45.15087891 C-17.75228507 47.20878365 -17.80955946 49.26647541 -17.8671875 51.32421875 C-17.91262695 53.17297607 -17.91262695 53.17297607 -17.95898438 55.05908203 C-18.1484375 57.87890625 -18.1484375 57.87890625 -19.1484375 58.87890625 C-25.7484375 58.87890625 -32.3484375 58.87890625 -39.1484375 58.87890625 C-39.1484375 39.73890625 -39.1484375 20.59890625 -39.1484375 0.87890625 C-33.2084375 0.87890625 -27.2684375 0.87890625 -21.1484375 0.87890625 C-20.4884375 1.86890625 -19.8284375 2.85890625 -19.1484375 3.87890625 C-17.8490625 3.16734375 -17.8490625 3.16734375 -16.5234375 2.44140625 C-11.00287985 -0.11440748 -6.01969093 -0.23152657 0 0 Z " fill="#000000" transform="translate(354.1484375,40.12109375)"/>
<path d="M0 0 C7.18638763 5.8797717 11.40099874 12.17809777 12.5625 21.5625 C13.14237662 30.56909436 11.49335227 38.1624589 5.75 45.25 C0.05143714 51.53004887 -6.84973053 55.01244284 -15.3203125 55.6328125 C-25.88219044 56.06686228 -34.16569274 54.75816686 -42.625 48 C-48.11983423 42.83818602 -50.91419857 36.62092351 -51.48828125 29.1484375 C-51.70835211 18.70086321 -50.20063761 10.49833371 -42.875 2.71484375 C-31.33690637 -7.686082 -13.05499669 -7.0296136 0 0 Z M-27.25 17.25 C-29.94000043 21.28500065 -29.928474 24.50875907 -29.25 29.25 C-27.02561281 33.52403857 -27.02561281 33.52403857 -23.25 36.25 C-19.21009652 36.63112297 -16.95678033 36.6740682 -13.4375 34.5625 C-10.03892932 30.96972528 -9.22403966 28.70377925 -9.3125 23.75 C-10.45881212 19.47043474 -11.69821774 17.87523037 -15.25 15.25 C-20.3335581 13.79755483 -23.09074696 13.92259757 -27.25 17.25 Z " fill="#000000" transform="translate(296.25,44.75)"/>
<path d="M0 0 C6.93 0 13.86 0 21 0 C21 4.62 21 9.24 21 14 C22.959375 13.979375 24.91875 13.95875 26.9375 13.9375 C28.95832876 13.91622812 30.98035801 13.92755947 33 14 C34 15 34 15 34.09765625 18.81640625 C34.09098089 20.39846682 34.07901875 21.98051159 34.0625 23.5625 C34.05798828 24.36880859 34.05347656 25.17511719 34.04882812 26.00585938 C34.03700518 28.00393756 34.01906914 30.00197783 34 32 C31.35541621 33.32229189 29.32238699 33.09677194 26.375 33.0625 C25.37210938 33.05347656 24.36921875 33.04445312 23.3359375 33.03515625 C22.56507813 33.02355469 21.79421875 33.01195312 21 33 C21.11446272 35.56336254 21.24119501 38.12513445 21.375 40.6875 C21.4059375 41.40873047 21.436875 42.12996094 21.46875 42.87304688 C21.69335587 46.97210394 22.17740909 50.24368459 24 54 C24.99 53.34 25.98 52.68 27 52 C32.4778841 52.26085162 37.13066461 54.67353976 42 57 C42 60.84578035 41.87128447 62.98214431 39.328125 65.953125 C32.28513211 72.25475021 26.86862395 73.47018113 17.45703125 73.3125 C11.26751018 72.75299527 7.66053825 70.9227285 3.625 66.25 C-0.12401059 58.75197883 -0.26524701 51.72063242 -0.125 43.5 C-0.11597656 42.48679688 -0.10695312 41.47359375 -0.09765625 40.4296875 C-0.07429007 37.95287199 -0.04153168 35.47656621 0 33 C-1.7015625 33.0309375 -1.7015625 33.0309375 -3.4375 33.0625 C-7 33 -7 33 -8 32 C-8.09986975 29.15664952 -8.13877881 26.34302837 -8.125 23.5 C-8.12886719 22.70207031 -8.13273438 21.90414062 -8.13671875 21.08203125 C-8.12660767 15.12660767 -8.12660767 15.12660767 -7 14 C-4.69 14 -2.38 14 0 14 C0 9.38 0 4.76 0 0 Z " fill="#000000" transform="translate(203,27)"/>
<path d="M0 0 C0.83265381 0.00523682 1.66530762 0.01047363 2.52319336 0.01586914 C3.42231445 0.0190918 4.32143555 0.02231445 5.24780273 0.02563477 C6.66609375 0.03820313 6.66609375 0.03820313 8.11303711 0.05102539 C9.06243164 0.05553711 10.01182617 0.06004883 10.98999023 0.06469727 C13.34356776 0.07652429 15.69702188 0.09300514 18.05053711 0.11352539 C19.30704649 2.62654416 19.17752086 4.34605881 19.17993164 7.15820312 C19.1830838 8.20946884 19.18623596 9.26073456 19.18948364 10.34385681 C19.18745941 11.48343338 19.18543518 12.62300995 19.18334961 13.79711914 C19.1847847 15.54678734 19.1847847 15.54678734 19.18624878 17.33180237 C19.18693029 19.80241957 19.18507802 22.27303856 19.1809082 24.74365234 C19.17556438 28.53169776 19.18085173 32.31962434 19.18725586 36.10766602 C19.18659498 38.50415065 19.18531361 40.90063522 19.18334961 43.29711914 C19.18537384 44.43467148 19.18739807 45.57222382 19.18948364 46.74424744 C19.18633148 47.79866531 19.18317932 48.85308319 19.17993164 49.93945312 C19.17913605 50.86829819 19.17834045 51.79714325 19.17752075 52.75413513 C19.05053711 55.11352539 19.05053711 55.11352539 18.05053711 58.11352539 C11.12053711 58.11352539 4.19053711 58.11352539 -2.94946289 58.11352539 C-2.97201867 50.69892176 -2.99038073 43.28433675 -3.00127506 35.86970615 C-3.00650271 32.42712191 -3.0135982 28.98456227 -3.02490234 25.54199219 C-3.03780524 21.58797496 -3.04269207 17.63396784 -3.04711914 13.67993164 C-3.05228043 12.43828751 -3.05744171 11.19664337 -3.0627594 9.91737366 C-3.06283493 8.77626633 -3.06291046 7.635159 -3.06298828 6.45947266 C-3.06520889 5.44909439 -3.0674295 4.43871613 -3.06971741 3.39772034 C-2.9191735 0.53818842 -2.85723575 0.16638881 0 0 Z " fill="#000000" transform="translate(172.949462890625,40.886474609375)"/>
<path d="M0 0 C2.73956564 4.33028117 2.98687251 8.06978237 1.9375 13.0625 C-0.25272918 15.88674288 -1.89267207 17.47758603 -5.0625 19.0625 C-9.32505164 19.49796696 -13.00429539 19.49028484 -17 17.875 C-19.57470795 15.61237786 -20.33056005 14.42942378 -21.0625 11.0625 C-21.12585283 6.63572118 -20.88660643 3.19919853 -18.25 -0.4375 C-12.61012196 -4.30484494 -5.59411018 -3.53913093 0 0 Z " fill="#000000" transform="translate(190.0625,16.9375)"/>
</svg>
