<?xml version="1.0" standalone="no"?>
<!DOCTYPE svg PUBLIC "-//W3C//DTD SVG 20010904//EN"
 "http://www.w3.org/TR/2001/REC-SVG-20010904/DTD/svg10.dtd">
<svg version="1.0" xmlns="http://www.w3.org/2000/svg"
 width="500.000000pt" height="500.000000pt" viewBox="0 0 500.000000 500.000000"
 preserveAspectRatio="xMidYMid meet">

<g transform="translate(0.000000,500.000000) scale(0.100000,-0.100000)"
fill="#000000" stroke="none">
<path d="M2119 2931 c-22 -22 -29 -39 -29 -68 0 -50 22 -80 69 -94 83 -25 152
33 137 114 -15 78 -119 106 -177 48z"/>
<path d="M1305 2897 c-3 -6 -4 -181 -3 -387 l3 -375 200 0 c233 0 285 11 370
80 94 77 137 218 115 375 -27 189 -129 288 -322 310 -125 15 -358 13 -363 -3z
m357 -187 c88 -25 134 -104 126 -214 -10 -123 -61 -168 -200 -174 l-88 -4 0
201 0 201 63 0 c34 0 79 -5 99 -10z"/>
<path d="M2428 2768 l-3 -73 -40 -5 -40 -5 -3 -77 -3 -77 43 -3 43 -3 5 -135
c7 -177 28 -224 117 -256 87 -31 190 -7 248 57 20 22 35 47 33 56 -2 8 -30 26
-63 40 -46 20 -63 23 -77 14 -52 -32 -68 -2 -68 128 l0 101 65 0 66 0 -3 78
-3 77 -62 3 -62 3 -3 72 -3 72 -92 3 -92 3 -3 -73z"/>
<path d="M840 2683 c-67 -24 -161 -122 -189 -197 -28 -76 -37 -168 -21 -226
34 -125 197 -178 327 -106 25 14 46 26 48 26 1 0 1 -10 1 -22 -1 -22 3 -23 77
-26 72 -3 78 -1 87 20 11 26 110 495 110 521 0 15 -12 17 -80 17 -78 0 -81 -1
-91 -26 l-10 -27 -22 21 c-12 11 -35 25 -50 31 -40 16 -134 12 -187 -6z m185
-178 c66 -65 -16 -215 -118 -215 -38 0 -87 49 -87 86 0 42 39 114 74 135 45
27 101 25 131 -6z"/>
<path d="M3027 2680 c-67 -26 -112 -63 -144 -117 -22 -39 -28 -62 -31 -134 -4
-77 -1 -93 20 -141 32 -67 69 -104 138 -137 76 -36 209 -37 287 -2 111 50 169
153 161 285 -8 119 -70 207 -175 246 -71 26 -189 27 -256 0z m182 -164 c34
-18 51 -54 51 -111 0 -122 -159 -156 -205 -43 -20 51 -12 99 25 138 32 34 81
40 129 16z"/>
<path d="M3801 2690 c-13 -6 -36 -19 -51 -30 -36 -26 -40 -25 -40 5 0 25 -1
25 -85 25 l-85 0 2 -277 3 -278 89 -3 c65 -2 92 1 98 10 4 7 8 79 8 159 0 131
2 149 20 172 25 31 77 50 127 45 l38 -3 0 90 0 90 -50 2 c-27 1 -61 -2 -74 -7z"/>
<path d="M2100 2410 l0 -281 93 3 92 3 3 278 2 277 -95 0 -95 0 0 -280z"/>
<path d="M3950 2677 c0 -8 48 -122 106 -253 59 -132 107 -244 107 -250 0 -6
-21 -63 -46 -127 -26 -65 -47 -124 -47 -132 0 -12 17 -15 89 -15 59 0 92 4 98
13 12 16 313 752 313 766 0 7 -34 11 -94 11 l-93 0 -58 -146 c-31 -80 -59
-144 -61 -142 -2 2 -28 67 -58 143 l-54 140 -101 3 c-81 2 -101 0 -101 -11z"/>
</g>
</svg>
